<svg xmlns="http://www.w3.org/2000/svg" xmlns:xlink="http://www.w3.org/1999/xlink" width="500" zoomAndPan="magnify" viewBox="0 0 375 374.999991" height="500" preserveAspectRatio="xMidYMid meet" version="1.0"><defs><g/></defs><g fill="#ffde59" fill-opacity="1"><g transform="translate(56.577365, 207.582702)"><g><path d="M 20.171875 -32.703125 C 25.941406 -32.703125 30.390625 -31.359375 33.515625 -28.671875 C 36.648438 -25.992188 38.21875 -21.765625 38.21875 -15.984375 L 38.21875 -13.921875 L 17.625 -13.921875 L 17.625 -19.625 L 26.046875 -19.625 C 26.046875 -21.28125 25.570312 -22.59375 24.625 -23.5625 C 23.675781 -24.53125 22.351562 -25.015625 20.65625 -25.015625 C 19.519531 -25.015625 18.507812 -24.851562 17.625 -24.53125 L 17.625 -32.578125 C 18.070312 -32.617188 18.503906 -32.648438 18.921875 -32.671875 C 19.347656 -32.691406 19.765625 -32.703125 20.171875 -32.703125 Z M 14.234375 -32.09375 L 14.234375 -13.921875 C 14.234375 -11.703125 14.726562 -9.988281 15.71875 -8.78125 C 16.707031 -7.570312 18.351562 -6.96875 20.65625 -6.96875 C 22.789062 -6.96875 24.300781 -7.421875 25.1875 -8.328125 C 26.082031 -9.234375 26.53125 -10.332031 26.53125 -11.625 L 38.21875 -11.625 C 38.21875 -7.832031 36.769531 -4.820312 33.875 -2.59375 C 30.988281 -0.375 26.660156 0.734375 20.890625 0.734375 C 15.160156 0.734375 10.609375 -0.617188 7.234375 -3.328125 C 3.867188 -6.035156 2.1875 -10.253906 2.1875 -15.984375 C 2.1875 -20.503906 3.265625 -24.097656 5.421875 -26.765625 C 7.578125 -29.429688 10.515625 -31.207031 14.234375 -32.09375 Z M 14.234375 -32.09375 "/></g></g></g><g fill="#ffde59" fill-opacity="1"><g transform="translate(93.512883, 207.582702)"><g><path d="M 22.28125 0 L 12.109375 0 L 0 -31.984375 L 12.953125 -31.984375 Z M 25.3125 -1.390625 L 37 -31.984375 L 25.140625 -31.984375 L 20.71875 -17.015625 Z M 25.3125 -1.390625 "/></g></g></g><g fill="#ffde59" fill-opacity="1"><g transform="translate(127.057562, 207.582702)"><g><path d="M 20.171875 -32.703125 C 25.941406 -32.703125 30.390625 -31.359375 33.515625 -28.671875 C 36.648438 -25.992188 38.21875 -21.765625 38.21875 -15.984375 L 38.21875 -13.921875 L 17.625 -13.921875 L 17.625 -19.625 L 26.046875 -19.625 C 26.046875 -21.28125 25.570312 -22.59375 24.625 -23.5625 C 23.675781 -24.53125 22.351562 -25.015625 20.65625 -25.015625 C 19.519531 -25.015625 18.507812 -24.851562 17.625 -24.53125 L 17.625 -32.578125 C 18.070312 -32.617188 18.503906 -32.648438 18.921875 -32.671875 C 19.347656 -32.691406 19.765625 -32.703125 20.171875 -32.703125 Z M 14.234375 -32.09375 L 14.234375 -13.921875 C 14.234375 -11.703125 14.726562 -9.988281 15.71875 -8.78125 C 16.707031 -7.570312 18.351562 -6.96875 20.65625 -6.96875 C 22.789062 -6.96875 24.300781 -7.421875 25.1875 -8.328125 C 26.082031 -9.234375 26.53125 -10.332031 26.53125 -11.625 L 38.21875 -11.625 C 38.21875 -7.832031 36.769531 -4.820312 33.875 -2.59375 C 30.988281 -0.375 26.660156 0.734375 20.890625 0.734375 C 15.160156 0.734375 10.609375 -0.617188 7.234375 -3.328125 C 3.867188 -6.035156 2.1875 -10.253906 2.1875 -15.984375 C 2.1875 -20.503906 3.265625 -24.097656 5.421875 -26.765625 C 7.578125 -29.429688 10.515625 -31.207031 14.234375 -32.09375 Z M 14.234375 -32.09375 "/></g></g></g><g fill="#ffde59" fill-opacity="1"><g transform="translate(163.99308, 207.582702)"><g><path d="M 25.671875 -32.703125 C 24.546875 -32.703125 23.414062 -32.5625 22.28125 -32.28125 C 21.15625 -32 20.085938 -31.613281 19.078125 -31.125 L 19.078125 -23.5625 C 19.523438 -23.71875 20.070312 -23.796875 20.71875 -23.796875 C 22.050781 -23.796875 23.054688 -23.367188 23.734375 -22.515625 C 24.421875 -21.671875 24.765625 -20.585938 24.765625 -19.265625 L 24.765625 0 L 36.828125 0 L 36.828125 -20.71875 C 36.828125 -24.507812 35.914062 -27.453125 34.09375 -29.546875 C 32.28125 -31.648438 29.472656 -32.703125 25.671875 -32.703125 Z M 15.6875 -18.890625 L 14.296875 -27.125 L 13.5 -31.984375 L 3.640625 -31.984375 L 3.640625 0 L 15.6875 0 Z M 15.6875 -18.890625 "/></g></g></g><g fill="#ffde59" fill-opacity="1"><g transform="translate(200.928597, 207.582702)"><g><path d="M 18.171875 -41.671875 L 18.171875 -31.984375 L 24.953125 -31.984375 L 24.953125 -23.796875 L 18.171875 -23.796875 L 18.171875 -11.625 C 18.171875 -10.25 18.390625 -9.207031 18.828125 -8.5 C 19.273438 -7.800781 20.1875 -7.453125 21.5625 -7.453125 L 24.953125 -7.453125 L 24.953125 -0.359375 C 23.941406 -0.0351562 22.660156 0.222656 21.109375 0.421875 C 19.554688 0.628906 18.253906 0.734375 17.203125 0.734375 C 15.015625 0.734375 13.082031 0.484375 11.40625 -0.015625 C 9.738281 -0.523438 8.4375 -1.40625 7.5 -2.65625 C 6.570312 -3.914062 6.109375 -5.632812 6.109375 -7.8125 L 6.109375 -23.796875 L 1.640625 -23.796875 L 1.640625 -31.984375 L 6.59375 -31.984375 L 9.203125 -41.671875 Z M 18.171875 -41.671875 "/></g></g></g><g fill="#ffde59" fill-opacity="1"><g transform="translate(224.361278, 207.582702)"><g><path d="M 23.859375 -13.921875 C 20.304688 -13.921875 17.753906 -13.523438 16.203125 -12.734375 C 14.648438 -11.953125 13.875 -10.976562 13.875 -9.8125 C 13.875 -8.5625 14.304688 -7.742188 15.171875 -7.359375 C 16.035156 -6.972656 16.972656 -6.78125 17.984375 -6.78125 C 18.910156 -6.78125 19.738281 -6.921875 20.46875 -7.203125 L 20.46875 -0.609375 C 19.457031 -0.203125 18.347656 0.117188 17.140625 0.359375 C 15.929688 0.609375 14.578125 0.734375 13.078125 0.734375 C 10.859375 0.734375 8.898438 0.453125 7.203125 -0.109375 C 5.503906 -0.679688 4.179688 -1.625 3.234375 -2.9375 C 2.285156 -4.25 1.8125 -6.015625 1.8125 -8.234375 C 1.8125 -11.421875 2.679688 -13.832031 4.421875 -15.46875 C 6.160156 -17.101562 8.679688 -18.203125 11.984375 -18.765625 C 15.296875 -19.335938 19.273438 -19.625 23.921875 -19.625 L 23.921875 -21.203125 C 23.921875 -22.492188 23.46875 -23.453125 22.5625 -24.078125 C 21.65625 -24.703125 20.554688 -25.015625 19.265625 -25.015625 C 18.210938 -25.015625 17.179688 -24.8125 16.171875 -24.40625 C 15.160156 -24 14.65625 -23.269531 14.65625 -22.21875 L 14.65625 -21.984375 L 2.78125 -21.984375 C 2.738281 -22.140625 2.71875 -22.28125 2.71875 -22.40625 C 2.71875 -22.53125 2.71875 -22.671875 2.71875 -22.828125 C 2.71875 -25.773438 4.128906 -28.15625 6.953125 -29.96875 C 9.785156 -31.789062 13.945312 -32.703125 19.4375 -32.703125 C 22.382812 -32.703125 25.109375 -32.378906 27.609375 -31.734375 C 30.117188 -31.085938 32.140625 -30.003906 33.671875 -28.484375 C 35.203125 -26.972656 35.96875 -24.90625 35.96875 -22.28125 L 35.96875 -9.8125 C 35.96875 -9.164062 36.128906 -8.609375 36.453125 -8.140625 C 36.773438 -7.679688 37.257812 -7.453125 37.90625 -7.453125 L 40.09375 -7.453125 L 40.09375 -0.484375 C 40.09375 -0.484375 39.546875 -0.28125 38.453125 0.125 C 37.367188 0.53125 35.816406 0.734375 33.796875 0.734375 C 31.367188 0.734375 29.414062 0.367188 27.9375 -0.359375 C 26.46875 -1.085938 25.453125 -2.054688 24.890625 -3.265625 C 24.609375 -3.796875 24.394531 -4.523438 24.25 -5.453125 C 24.113281 -6.378906 24.035156 -7.367188 24.015625 -8.421875 C 23.992188 -9.472656 23.984375 -10.441406 23.984375 -11.328125 C 23.984375 -11.523438 23.984375 -11.710938 23.984375 -11.890625 C 23.984375 -12.078125 23.984375 -12.253906 23.984375 -12.421875 C 23.984375 -13.421875 23.941406 -13.921875 23.859375 -13.921875 Z M 23.859375 -13.921875 "/></g></g></g><g fill="#ffde59" fill-opacity="1"><g transform="translate(261.296795, 207.582702)"><g><path d="M 16.109375 -43.90625 L 16.109375 0 L 4.0625 0 L 4.0625 -43.90625 Z M 16.109375 -43.90625 "/></g></g></g><g fill="#ffde59" fill-opacity="1"><g transform="translate(278.008326, 207.582702)"><g><path d="M 20.171875 -32.703125 C 25.941406 -32.703125 30.390625 -31.359375 33.515625 -28.671875 C 36.648438 -25.992188 38.21875 -21.765625 38.21875 -15.984375 L 38.21875 -13.921875 L 17.625 -13.921875 L 17.625 -19.625 L 26.046875 -19.625 C 26.046875 -21.28125 25.570312 -22.59375 24.625 -23.5625 C 23.675781 -24.53125 22.351562 -25.015625 20.65625 -25.015625 C 19.519531 -25.015625 18.507812 -24.851562 17.625 -24.53125 L 17.625 -32.578125 C 18.070312 -32.617188 18.503906 -32.648438 18.921875 -32.671875 C 19.347656 -32.691406 19.765625 -32.703125 20.171875 -32.703125 Z M 14.234375 -32.09375 L 14.234375 -13.921875 C 14.234375 -11.703125 14.726562 -9.988281 15.71875 -8.78125 C 16.707031 -7.570312 18.351562 -6.96875 20.65625 -6.96875 C 22.789062 -6.96875 24.300781 -7.421875 25.1875 -8.328125 C 26.082031 -9.234375 26.53125 -10.332031 26.53125 -11.625 L 38.21875 -11.625 C 38.21875 -7.832031 36.769531 -4.820312 33.875 -2.59375 C 30.988281 -0.375 26.660156 0.734375 20.890625 0.734375 C 15.160156 0.734375 10.609375 -0.617188 7.234375 -3.328125 C 3.867188 -6.035156 2.1875 -10.253906 2.1875 -15.984375 C 2.1875 -20.503906 3.265625 -24.097656 5.421875 -26.765625 C 7.578125 -29.429688 10.515625 -31.207031 14.234375 -32.09375 Z M 14.234375 -32.09375 "/></g></g></g></svg>